<svg width="54" height="54" viewBox="0 0 54 54" fill="none" xmlns="http://www.w3.org/2000/svg">
<path d="M19.7355 12.6629C19.4341 11.8348 19.2692 10.9409 19.2692 10.0096C19.2692 5.72409 22.7433 2.25 27.0288 2.25C31.3144 2.25 34.7885 5.72409 34.7885 10.0096C34.7885 11.2649 34.4885 12.4549 33.9566 13.5071C34.7219 13.5601 35.4656 13.9049 36.0077 14.5245C38.9534 17.891 41.5312 22.6911 41.5312 28.2548C41.5312 32.2325 40.1619 35.18 38.3114 37.3037L41.8259 37.9201C43.2609 38.1718 44.3077 39.4181 44.3077 40.875V46.5C44.3077 47.2957 43.9916 48.0587 43.429 48.6213C42.8664 49.1839 42.1033 49.5 41.3077 49.5L12.75 49.5C11.0931 49.5 9.75 48.1569 9.75 46.5V40.875C9.75 39.4198 10.7944 38.1744 12.2274 37.9209L15.3977 37.36C13.522 35.2323 12.1298 32.2683 12.1298 28.2548C12.1298 23.914 13.812 20.1337 15.785 17.2365C17.0251 15.4155 18.4291 13.8696 19.7355 12.6629Z" fill="#34364C"/>
<path d="M28.5 27.8582H25.5C25.5 22.3496 27.1708 16.8502 30.8671 12.8247C31.4463 12.0363 31.7885 11.0629 31.7885 10.0096C31.7885 7.38094 29.6575 5.25 27.0288 5.25C24.4002 5.25 22.2692 7.38094 22.2692 10.0096C22.2692 11.3065 22.788 12.4823 23.6292 13.3408C20.6561 15.4603 15.1298 21.1417 15.1298 28.2548C15.1298 35.4332 20.7579 38.3394 23.7104 38.936L12.75 40.875V46.5L41.3077 46.5V40.875L30.0874 38.9071C33.0733 38.2499 38.5312 35.3239 38.5312 28.2548C38.5312 23.6261 36.375 19.5 33.75 16.5C30.8671 18.75 28.5 24 28.5 27.8582Z" fill="#F4F7FA"/>
</svg>
