<svg width="54" height="54" viewBox="0 0 54 54" fill="none" xmlns="http://www.w3.org/2000/svg">
<path d="M22.2674 0.380208C23.2549 0.269167 24.2333 0.654328 24.8801 1.40873L31.0008 8.54758C38.0298 10.2846 42.1024 15.5774 44.3549 22.1847C46.6759 28.9931 47.25 37.6365 47.25 46.5C47.25 48.1568 45.9069 49.5 44.25 49.5H16.2787C14.686 49.5 13.3709 48.2554 13.2832 46.6652C13.205 45.246 13.5315 42.7837 14.5264 40.2685L14.5447 40.2225C11.7193 41.7391 8.58362 41.3758 6.25585 39.7185C3.42695 37.7044 1.85402 33.7615 3.65112 29.8678C4.94703 27.06 6.34374 25.5732 7.40034 24.4487C8.3873 23.3983 8.7986 22.9363 9.08957 21.7724C10.8538 14.7157 14.4832 10.6505 18.3809 8.79529C18.3245 7.99137 18.3704 7.21685 18.469 6.51365C18.7144 4.76329 19.3255 3.14577 19.9483 1.96329C20.4114 1.08408 21.2799 0.491249 22.2674 0.380208Z" fill="#34364C"/>
<path fill-rule="evenodd" clip-rule="evenodd" d="M29.378 11.2639L22.6026 3.36142C21.6219 5.22337 20.671 8.50956 22.038 10.8819C21.3746 10.9409 20.7405 11.0532 20.25 11.25C17.1209 12.5057 13.6875 15.75 12 22.5C11.5114 24.4545 10.6319 25.3905 9.58665 26.5029C8.60068 27.5523 7.46717 28.7586 6.375 31.125C4.12501 36 10.1972 40.875 14.625 36.4472C17.1144 33.9579 19.2903 32.9302 21.1171 32.0674C23.7465 30.8256 25.6527 29.9253 26.7295 25.5C27.2418 27.5642 27.0369 32.4358 22.1189 35.4082C17.2008 38.3807 16.1762 44.6422 16.2787 46.5H44.25C44.25 28.8624 41.9149 13.6236 29.378 11.2639Z" fill="#F4F7FA"/>
<circle cx="21" cy="20.25" r="2.25" fill="#34364C"/>
</svg>
