<svg width="54" height="54" viewBox="0 0 54 54" fill="none" xmlns="http://www.w3.org/2000/svg">
<path d="M17.3306 30.8452C16.9727 31.3338 16.5456 31.8427 16.0478 32.3661C14.2909 34.2134 12.1362 35.7332 10.7455 36.5279L10.5116 36.6616C9.57685 37.1957 9 38.1897 9 39.2663V46.5C9 48.1569 10.3431 49.5 12 49.5H41.25C42.9069 49.5 44.25 48.1569 44.25 46.5V39.2663C44.25 38.1897 43.6731 37.1957 42.7384 36.6616L42.5045 36.5279C41.1138 35.7332 38.9591 34.2134 37.2022 32.3661C36.7044 31.8427 36.2773 31.3338 35.9194 30.8452C37.236 30.5281 38.2143 29.3426 38.2143 27.9286V23.0451C38.2143 22.0704 37.7407 21.1564 36.9443 20.5942L35.6702 19.6948C36.4054 18.2663 36.8214 16.6453 36.8214 14.9286C36.8214 9.16903 32.1524 4.5 26.3929 4.5C20.6333 4.5 15.9643 9.16903 15.9643 14.9286C15.9643 16.7419 16.4283 18.4479 17.2421 19.9332L16.3057 20.5942C15.5093 21.1564 15.0357 22.0704 15.0357 23.0451V27.9286C15.0357 29.3426 16.014 30.5281 17.3306 30.8452Z" fill="#F4F7FA"/>
<path d="M33.8214 14.9286C33.8214 17.0831 32.9042 19.0233 31.439 20.3802L35.2143 23.0451V27.9286H31.5184C31.6967 30.1922 33.149 32.4576 35.0284 34.4336C37.0229 36.5307 39.4225 38.222 41.0161 39.1326L41.25 39.2663V46.5H12V39.2663L12.2339 39.1326C13.8275 38.222 16.2271 36.5307 18.2216 34.4336C20.101 32.4576 21.5534 30.1922 21.7316 27.9286H18.0357V23.0451L21.5518 20.5632C19.9676 19.2009 18.9643 17.1819 18.9643 14.9286C18.9643 10.8259 22.2902 7.5 26.3929 7.5C30.4955 7.5 33.8214 10.8259 33.8214 14.9286Z" fill="#34364C"/>
</svg>
