<svg width="54" height="54" viewBox="0 0 54 54" fill="none" xmlns="http://www.w3.org/2000/svg">
<path d="M13.5 7.50002C13.5 8.24052 13.6191 8.953 13.8393 9.6194L12.3584 10.314C11.1308 9.04151 9.40782 8.25002 7.5 8.25002C3.77208 8.25002 0.75 11.2721 0.75 15C0.75 18.3231 3.15135 21.0853 6.31343 21.6461L9.87 33.84C9.94424 34.0946 10.0519 34.3381 10.1902 34.5644L12.24 37.9187L12.2274 37.9209C10.7944 38.1744 9.75 39.4198 9.75 40.875V46.5C9.75 48.1569 11.0931 49.5 12.75 49.5L41.3077 49.5C42.1033 49.5 42.8664 49.1839 43.429 48.6213C43.9916 48.0587 44.3077 47.2957 44.3077 46.5V40.875C44.3077 39.4181 43.2609 38.1718 41.8259 37.9201L41.7656 37.9095L43.8098 34.5644C43.9481 34.3381 44.0558 34.0946 44.13 33.84L47.6866 21.6461C50.8487 21.0853 53.25 18.3231 53.25 15C53.25 11.2721 50.2279 8.25002 46.5 8.25002C44.5898 8.25002 42.8649 9.04351 41.637 10.3189L40.1587 9.62544C40.3802 8.9573 40.5 8.24276 40.5 7.50002C40.5 3.77209 37.4779 0.750015 33.75 0.750015C30.0221 0.750015 27 3.77209 27 7.50002C27 3.77209 23.9779 0.750015 20.25 0.750015C16.5221 0.750015 13.5 3.77209 13.5 7.50002Z" fill="#F4F7FA"/>
<path d="M21.5961 11.0012C23.0022 10.4602 24 9.09663 24 7.5C24 5.42893 22.3211 3.75 20.25 3.75C18.1789 3.75 16.5 5.42893 16.5 7.5C16.5 9.41389 17.9338 10.9929 19.7858 11.2216L18.1135 24.75L10.0516 17.748C10.7888 17.0633 11.25 16.0855 11.25 15C11.25 12.9289 9.57107 11.25 7.5 11.25C5.42893 11.25 3.75 12.9289 3.75 15C3.75 17.0711 5.42893 18.75 7.5 18.75C7.86458 18.75 8.21701 18.698 8.55027 18.6009L12.75 33L17.093 40.1067L12.75 40.875V46.5L41.3077 46.5V40.875L36.909 40.1035L41.25 33L45.4497 18.6009C45.783 18.698 46.1354 18.75 46.5 18.75C48.5711 18.75 50.25 17.0711 50.25 15C50.25 12.9289 48.5711 11.25 46.5 11.25C44.4289 11.25 42.75 12.9289 42.75 15C42.75 16.0855 43.2112 17.0633 43.9484 17.748L35.8865 24.75L34.2142 11.2216C36.0662 10.9929 37.5 9.41389 37.5 7.5C37.5 5.42893 35.8211 3.75 33.75 3.75C31.6789 3.75 30 5.42893 30 7.5C30 9.09663 30.9978 10.4602 32.4039 11.0012L27 23.25L21.5961 11.0012Z" fill="#34364C"/>
</svg>
